<svg viewBox="0,0,960,200" width="960" height="200" style="background-color: white;" xmlns="http://www.w3.org/2000/svg" xmlns:xlink="http://www.w3.org/1999/xlink"><g transform="translate(50,20)"><g class="layer"><path class="area" d="M0,0L28.767994347787692,0L57.45738761812241,0L86.14678088845713,0L114.83617415879183,0L143.60416850657953,150L172.29356177691426,150L200.98295504724896,150L229.67234831758367,150L258.44034266537136,150L287.1297359357061,150L315.8191292060408,150L344.5085224763755,150L373.27651682416325,150L401.96591009449793,150L430.65530336483266,150L459.34469663516734,150L488.1126909829551,150L516.8020842532898,150L545.4914775236246,150L574.1808707939592,150L602.9488651417469,150L631.6382584120817,150L660.3276516824163,150L689.017044952751,150L717.7850393005388,150L746.4744325708734,150L775.1638258412081,150L803.8532191115429,150L832.6212134593305,150L861.3106067296653,150L890,150L890,150L861.3106067296653,150L832.6212134593305,150L803.8532191115429,150L775.1638258412081,150L746.4744325708734,150L717.7850393005388,150L689.017044952751,150L660.3276516824163,150L631.6382584120817,150L602.9488651417469,150L574.1808707939592,150L545.4914775236246,150L516.8020842532898,150L488.1126909829551,150L459.34469663516734,150L430.65530336483266,150L401.96591009449793,150L373.27651682416325,150L344.5085224763755,150L315.8191292060408,150L287.1297359357061,150L258.44034266537136,150L229.67234831758367,150L200.98295504724896,150L172.29356177691426,150L143.60416850657953,150L114.83617415879183,150L86.14678088845713,150L57.45738761812241,150L28.767994347787692,150L0,150Z" style="fill: rgb(89, 159, 1);"/></g><g class="layer"><path class="area" d="M0,0L28.767994347787692,0L57.45738761812241,0L86.14678088845713,0L114.83617415879183,0L143.60416850657953,0L172.29356177691426,0L200.98295504724896,0L229.67234831758367,150L258.44034266537136,150L287.1297359357061,150L315.8191292060408,150L344.5085224763755,150L373.27651682416325,150L401.96591009449793,150L430.65530336483266,150L459.34469663516734,150L488.1126909829551,150L516.8020842532898,150L545.4914775236246,150L574.1808707939592,150L602.9488651417469,150L631.6382584120817,150L660.3276516824163,150L689.017044952751,150L717.7850393005388,150L746.4744325708734,150L775.1638258412081,150L803.8532191115429,150L832.6212134593305,150L861.3106067296653,150L890,150L890,150L861.3106067296653,150L832.6212134593305,150L803.8532191115429,150L775.1638258412081,150L746.4744325708734,150L717.7850393005388,150L689.017044952751,150L660.3276516824163,150L631.6382584120817,150L602.9488651417469,150L574.1808707939592,150L545.4914775236246,150L516.8020842532898,150L488.1126909829551,150L459.34469663516734,150L430.65530336483266,150L401.96591009449793,150L373.27651682416325,150L344.5085224763755,150L315.8191292060408,150L287.1297359357061,150L258.44034266537136,150L229.67234831758367,150L200.98295504724896,150L172.29356177691426,150L143.60416850657953,150L114.83617415879183,0L86.14678088845713,0L57.45738761812241,0L28.767994347787692,0L0,0Z" style="fill: rgb(208, 255, 0);"/></g><g class="layer"><path class="area" d="M0,0L28.767994347787692,0L57.45738761812241,0L86.14678088845713,0L114.83617415879183,0L143.60416850657953,0L172.29356177691426,0L200.98295504724896,0L229.67234831758367,15L258.44034266537136,30L287.1297359357061,52.5L315.8191292060408,60L344.5085224763755,60L373.27651682416325,82.5L401.96591009449793,150L430.65530336483266,150L459.34469663516734,150L488.1126909829551,150L516.8020842532898,150L545.4914775236246,150L574.1808707939592,150L602.9488651417469,150L631.6382584120817,150L660.3276516824163,150L689.017044952751,150L717.7850393005388,150L746.4744325708734,150L775.1638258412081,150L803.8532191115429,150L832.6212134593305,150L861.3106067296653,150L890,150L890,150L861.3106067296653,150L832.6212134593305,150L803.8532191115429,150L775.1638258412081,150L746.4744325708734,150L717.7850393005388,150L689.017044952751,150L660.3276516824163,150L631.6382584120817,150L602.9488651417469,150L574.1808707939592,150L545.4914775236246,150L516.8020842532898,150L488.1126909829551,150L459.34469663516734,150L430.65530336483266,150L401.96591009449793,150L373.27651682416325,150L344.5085224763755,150L315.8191292060408,150L287.1297359357061,150L258.44034266537136,150L229.67234831758367,150L200.98295504724896,0L172.29356177691426,0L143.60416850657953,0L114.83617415879183,0L86.14678088845713,0L57.45738761812241,0L28.767994347787692,0L0,0Z" style="fill: rgb(194, 150, 137);"/></g><g class="layer"><path class="area" d="M0,0L28.767994347787692,0L57.45738761812241,0L86.14678088845713,0L114.83617415879183,0L143.60416850657953,0L172.29356177691426,0L200.98295504724896,0L229.67234831758367,7.5L258.44034266537136,15L287.1297359357061,22.499999999999986L315.8191292060408,30L344.5085224763755,45L373.27651682416325,82.5L401.96591009449793,150L430.65530336483266,150L459.34469663516734,150L488.1126909829551,150L516.8020842532898,150L545.4914775236246,150L574.1808707939592,150L602.9488651417469,150L631.6382584120817,150L660.3276516824163,150L689.017044952751,150L717.7850393005388,150L746.4744325708734,150L775.1638258412081,150L803.8532191115429,150L832.6212134593305,150L861.3106067296653,150L890,150L890,150L861.3106067296653,150L832.6212134593305,150L803.8532191115429,150L775.1638258412081,150L746.4744325708734,150L717.7850393005388,150L689.017044952751,150L660.3276516824163,150L631.6382584120817,150L602.9488651417469,150L574.1808707939592,150L545.4914775236246,150L516.8020842532898,150L488.1126909829551,150L459.34469663516734,150L430.65530336483266,150L401.96591009449793,150L373.27651682416325,82.5L344.5085224763755,60L315.8191292060408,60L287.1297359357061,52.5L258.44034266537136,30L229.67234831758367,15L200.98295504724896,0L172.29356177691426,0L143.60416850657953,0L114.83617415879183,0L86.14678088845713,0L57.45738761812241,0L28.767994347787692,0L0,0Z" style="fill: rgb(111, 108, 108);"/></g><g class="layer"><path class="area" d="M0,0L28.767994347787692,0L57.45738761812241,0L86.14678088845713,0L114.83617415879183,0L143.60416850657953,0L172.29356177691426,0L200.98295504724896,0L229.67234831758367,7.5L258.44034266537136,15L287.1297359357061,14.999999999999972L315.8191292060408,15L344.5085224763755,7.5L373.27651682416325,7.5L401.96591009449793,7.5L430.65530336483266,15L459.34469663516734,15L488.1126909829551,15L516.8020842532898,22.5L545.4914775236246,22.5L574.1808707939592,15L602.9488651417469,45L631.6382584120817,45L660.3276516824163,135L689.017044952751,142.5L717.7850393005388,127.5L746.4744325708734,142.5L775.1638258412081,142.5L803.8532191115429,135L832.6212134593305,112.5L861.3106067296653,52.5L890,90L890,150L861.3106067296653,150L832.6212134593305,150L803.8532191115429,150L775.1638258412081,150L746.4744325708734,150L717.7850393005388,150L689.017044952751,150L660.3276516824163,150L631.6382584120817,150L602.9488651417469,150L574.1808707939592,150L545.4914775236246,150L516.8020842532898,150L488.1126909829551,150L459.34469663516734,150L430.65530336483266,150L401.96591009449793,150L373.27651682416325,82.5L344.5085224763755,45L315.8191292060408,30L287.1297359357061,22.499999999999986L258.44034266537136,15L229.67234831758367,7.5L200.98295504724896,0L172.29356177691426,0L143.60416850657953,0L114.83617415879183,0L86.14678088845713,0L57.45738761812241,0L28.767994347787692,0L0,0Z" style="fill: rgb(112, 109, 235);"/></g><g class="layer"><path class="area" d="M0,0L28.767994347787692,0L57.45738761812241,0L86.14678088845713,0L114.83617415879183,0L143.60416850657953,0L172.29356177691426,0L200.98295504724896,0L229.67234831758367,7.5L258.44034266537136,15L287.1297359357061,14.999999999999972L315.8191292060408,15L344.5085224763755,7.5L373.27651682416325,7.5L401.96591009449793,7.5L430.65530336483266,15L459.34469663516734,15L488.1126909829551,15L516.8020842532898,22.5L545.4914775236246,22.5L574.1808707939592,15L602.9488651417469,45L631.6382584120817,45L660.3276516824163,22.5L689.017044952751,22.499999999999986L717.7850393005388,30L746.4744325708734,97.5L775.1638258412081,135L803.8532191115429,127.5L832.6212134593305,112.5L861.3106067296653,52.5L890,90L890,90L861.3106067296653,52.5L832.6212134593305,112.5L803.8532191115429,135L775.1638258412081,142.5L746.4744325708734,142.5L717.7850393005388,127.5L689.017044952751,142.5L660.3276516824163,135L631.6382584120817,45L602.9488651417469,45L574.1808707939592,15L545.4914775236246,22.5L516.8020842532898,22.5L488.1126909829551,15L459.34469663516734,15L430.65530336483266,15L401.96591009449793,7.5L373.27651682416325,7.5L344.5085224763755,7.5L315.8191292060408,15L287.1297359357061,14.999999999999972L258.44034266537136,15L229.67234831758367,7.5L200.98295504724896,0L172.29356177691426,0L143.60416850657953,0L114.83617415879183,0L86.14678088845713,0L57.45738761812241,0L28.767994347787692,0L0,0Z" style="fill: rgb(245, 231, 255);"/></g><g class="layer"><path class="area" d="M0,0L28.767994347787692,0L57.45738761812241,0L86.14678088845713,0L114.83617415879183,0L143.60416850657953,0L172.29356177691426,0L200.98295504724896,0L229.67234831758367,0L258.44034266537136,0L287.1297359357061,-2.842170943040401e-14L315.8191292060408,0L344.5085224763755,0L373.27651682416325,0L401.96591009449793,7.5L430.65530336483266,15L459.34469663516734,15L488.1126909829551,15L516.8020842532898,22.5L545.4914775236246,22.5L574.1808707939592,15L602.9488651417469,30.000000000000014L631.6382584120817,30.000000000000014L660.3276516824163,7.5L689.017044952751,14.999999999999972L717.7850393005388,15L746.4744325708734,82.5L775.1638258412081,97.5L803.8532191115429,105L832.6212134593305,97.5L861.3106067296653,44.999999999999986L890,82.5L890,90L861.3106067296653,52.5L832.6212134593305,112.5L803.8532191115429,127.5L775.1638258412081,135L746.4744325708734,97.5L717.7850393005388,30L689.017044952751,22.499999999999986L660.3276516824163,22.5L631.6382584120817,45L602.9488651417469,45L574.1808707939592,15L545.4914775236246,22.5L516.8020842532898,22.5L488.1126909829551,15L459.34469663516734,15L430.65530336483266,15L401.96591009449793,7.5L373.27651682416325,7.5L344.5085224763755,7.5L315.8191292060408,15L287.1297359357061,14.999999999999972L258.44034266537136,15L229.67234831758367,7.5L200.98295504724896,0L172.29356177691426,0L143.60416850657953,0L114.83617415879183,0L86.14678088845713,0L57.45738761812241,0L28.767994347787692,0L0,0Z" style="fill: rgb(178, 175, 168);"/></g><g class="layer"><path class="area" d="M0,0L28.767994347787692,0L57.45738761812241,0L86.14678088845713,0L114.83617415879183,0L143.60416850657953,0L172.29356177691426,0L200.98295504724896,0L229.67234831758367,0L258.44034266537136,0L287.1297359357061,-2.842170943040401e-14L315.8191292060408,0L344.5085224763755,0L373.27651682416325,0L401.96591009449793,7.5L430.65530336483266,15L459.34469663516734,15L488.1126909829551,15L516.8020842532898,15L545.4914775236246,15L574.1808707939592,15L602.9488651417469,30.000000000000014L631.6382584120817,30.000000000000014L660.3276516824163,7.5L689.017044952751,14.999999999999972L717.7850393005388,15L746.4744325708734,82.5L775.1638258412081,97.5L803.8532191115429,105L832.6212134593305,97.5L861.3106067296653,44.999999999999986L890,82.5L890,82.5L861.3106067296653,44.999999999999986L832.6212134593305,97.5L803.8532191115429,105L775.1638258412081,97.5L746.4744325708734,82.5L717.7850393005388,15L689.017044952751,14.999999999999972L660.3276516824163,7.5L631.6382584120817,30.000000000000014L602.9488651417469,30.000000000000014L574.1808707939592,15L545.4914775236246,22.5L516.8020842532898,22.5L488.1126909829551,15L459.34469663516734,15L430.65530336483266,15L401.96591009449793,7.5L373.27651682416325,0L344.5085224763755,0L315.8191292060408,0L287.1297359357061,-2.842170943040401e-14L258.44034266537136,0L229.67234831758367,0L200.98295504724896,0L172.29356177691426,0L143.60416850657953,0L114.83617415879183,0L86.14678088845713,0L57.45738761812241,0L28.767994347787692,0L0,0Z" style="fill: rgb(249, 48, 190);"/></g><g class="layer"><path class="area" d="M0,0L28.767994347787692,0L57.45738761812241,0L86.14678088845713,0L114.83617415879183,0L143.60416850657953,0L172.29356177691426,0L200.98295504724896,0L229.67234831758367,0L258.44034266537136,0L287.1297359357061,-2.842170943040401e-14L315.8191292060408,0L344.5085224763755,0L373.27651682416325,0L401.96591009449793,0L430.65530336483266,0L459.34469663516734,0L488.1126909829551,0L516.8020842532898,0L545.4914775236246,0L574.1808707939592,0L602.9488651417469,0L631.6382584120817,0L660.3276516824163,0L689.017044952751,-2.842170943040401e-14L717.7850393005388,0L746.4744325708734,0L775.1638258412081,22.5L803.8532191115429,75L832.6212134593305,82.5L861.3106067296653,30L890,52.5L890,82.5L861.3106067296653,44.999999999999986L832.6212134593305,97.5L803.8532191115429,105L775.1638258412081,97.5L746.4744325708734,82.5L717.7850393005388,15L689.017044952751,14.999999999999972L660.3276516824163,7.5L631.6382584120817,30.000000000000014L602.9488651417469,30.000000000000014L574.1808707939592,15L545.4914775236246,15L516.8020842532898,15L488.1126909829551,15L459.34469663516734,15L430.65530336483266,15L401.96591009449793,7.5L373.27651682416325,0L344.5085224763755,0L315.8191292060408,0L287.1297359357061,-2.842170943040401e-14L258.44034266537136,0L229.67234831758367,0L200.98295504724896,0L172.29356177691426,0L143.60416850657953,0L114.83617415879183,0L86.14678088845713,0L57.45738761812241,0L28.767994347787692,0L0,0Z" style="fill: rgb(248, 213, 32);"/></g><g class="layer"><path class="area" d="M0,0L28.767994347787692,0L57.45738761812241,0L86.14678088845713,0L114.83617415879183,0L143.60416850657953,0L172.29356177691426,0L200.98295504724896,0L229.67234831758367,0L258.44034266537136,0L287.1297359357061,-2.842170943040401e-14L315.8191292060408,0L344.5085224763755,0L373.27651682416325,0L401.96591009449793,0L430.65530336483266,0L459.34469663516734,0L488.1126909829551,0L516.8020842532898,0L545.4914775236246,0L574.1808707939592,0L602.9488651417469,0L631.6382584120817,0L660.3276516824163,0L689.017044952751,-2.842170943040401e-14L717.7850393005388,0L746.4744325708734,0L775.1638258412081,0L803.8532191115429,0L832.6212134593305,0L861.3106067296653,0L890,0L890,52.5L861.3106067296653,30L832.6212134593305,82.5L803.8532191115429,75L775.1638258412081,22.5L746.4744325708734,0L717.7850393005388,0L689.017044952751,-2.842170943040401e-14L660.3276516824163,0L631.6382584120817,0L602.9488651417469,0L574.1808707939592,0L545.4914775236246,0L516.8020842532898,0L488.1126909829551,0L459.34469663516734,0L430.65530336483266,0L401.96591009449793,0L373.27651682416325,0L344.5085224763755,0L315.8191292060408,0L287.1297359357061,-2.842170943040401e-14L258.44034266537136,0L229.67234831758367,0L200.98295504724896,0L172.29356177691426,0L143.60416850657953,0L114.83617415879183,0L86.14678088845713,0L57.45738761812241,0L28.767994347787692,0L0,0Z" style="fill: rgb(44, 34, 191);"/></g><g class="x axis" transform="translate(0,150)" fill="none" font-size="10" font-family="sans-serif" text-anchor="middle"><path class="domain" stroke="currentColor" d="M0.5,6V0.5H890.5V6"/><g class="tick" opacity="1" transform="translate(0.5,0)"><line stroke="currentColor" y2="6"/><text fill="currentColor" y="9" dy="0.71em" style="font-size: 1.6em; font-family: &quot;Source Sans Pro&quot;;">1988</text></g><g class="tick" opacity="1" transform="translate(57.95738761812241,0)"><line stroke="currentColor" y2="6"/><text fill="currentColor" y="9" dy="0.71em" style="font-size: 1.6em; font-family: &quot;Source Sans Pro&quot;;">1990</text></g><g class="tick" opacity="1" transform="translate(115.33617415879183,0)"><line stroke="currentColor" y2="6"/><text fill="currentColor" y="9" dy="0.71em" style="font-size: 1.6em; font-family: &quot;Source Sans Pro&quot;;">1992</text></g><g class="tick" opacity="1" transform="translate(172.79356177691426,0)"><line stroke="currentColor" y2="6"/><text fill="currentColor" y="9" dy="0.71em" style="font-size: 1.6em; font-family: &quot;Source Sans Pro&quot;;">1994</text></g><g class="tick" opacity="1" transform="translate(230.17234831758367,0)"><line stroke="currentColor" y2="6"/><text fill="currentColor" y="9" dy="0.71em" style="font-size: 1.6em; font-family: &quot;Source Sans Pro&quot;;">1996</text></g><g class="tick" opacity="1" transform="translate(287.6297359357061,0)"><line stroke="currentColor" y2="6"/><text fill="currentColor" y="9" dy="0.71em" style="font-size: 1.6em; font-family: &quot;Source Sans Pro&quot;;">1998</text></g><g class="tick" opacity="1" transform="translate(345.0085224763755,0)"><line stroke="currentColor" y2="6"/><text fill="currentColor" y="9" dy="0.71em" style="font-size: 1.6em; font-family: &quot;Source Sans Pro&quot;;">2000</text></g><g class="tick" opacity="1" transform="translate(402.46591009449793,0)"><line stroke="currentColor" y2="6"/><text fill="currentColor" y="9" dy="0.71em" style="font-size: 1.6em; font-family: &quot;Source Sans Pro&quot;;">2002</text></g><g class="tick" opacity="1" transform="translate(459.84469663516734,0)"><line stroke="currentColor" y2="6"/><text fill="currentColor" y="9" dy="0.71em" style="font-size: 1.6em; font-family: &quot;Source Sans Pro&quot;;">2004</text></g><g class="tick" opacity="1" transform="translate(517.3020842532898,0)"><line stroke="currentColor" y2="6"/><text fill="currentColor" y="9" dy="0.71em" style="font-size: 1.6em; font-family: &quot;Source Sans Pro&quot;;">2006</text></g><g class="tick" opacity="1" transform="translate(574.6808707939592,0)"><line stroke="currentColor" y2="6"/><text fill="currentColor" y="9" dy="0.71em" style="font-size: 1.6em; font-family: &quot;Source Sans Pro&quot;;">2008</text></g><g class="tick" opacity="1" transform="translate(632.1382584120817,0)"><line stroke="currentColor" y2="6"/><text fill="currentColor" y="9" dy="0.71em" style="font-size: 1.6em; font-family: &quot;Source Sans Pro&quot;;">2010</text></g><g class="tick" opacity="1" transform="translate(689.517044952751,0)"><line stroke="currentColor" y2="6"/><text fill="currentColor" y="9" dy="0.71em" style="font-size: 1.6em; font-family: &quot;Source Sans Pro&quot;;">2012</text></g><g class="tick" opacity="1" transform="translate(746.9744325708734,0)"><line stroke="currentColor" y2="6"/><text fill="currentColor" y="9" dy="0.71em" style="font-size: 1.6em; font-family: &quot;Source Sans Pro&quot;;">2014</text></g><g class="tick" opacity="1" transform="translate(804.3532191115429,0)"><line stroke="currentColor" y2="6"/><text fill="currentColor" y="9" dy="0.71em" style="font-size: 1.6em; font-family: &quot;Source Sans Pro&quot;;">2016</text></g><g class="tick" opacity="1" transform="translate(861.8106067296653,0)"><line stroke="currentColor" y2="6"/><text fill="currentColor" y="9" dy="0.71em" style="font-size: 1.6em; font-family: &quot;Source Sans Pro&quot;;">2018</text></g></g><g class="y axis" fill="none" font-size="10" font-family="sans-serif" text-anchor="end"><path class="domain" stroke="currentColor" d="M-6,150.5H0.5V0.5H-6" style="display: none;"/><g class="tick" opacity="1" transform="translate(0,150.5)"><line stroke="currentColor" x2="-6" style="stroke: white;"/><text fill="currentColor" x="-9" dy="0.32em" style="font-size: 1.6em; font-family: &quot;Source Sans Pro&quot;;">0%</text></g><g class="tick" opacity="1" transform="translate(0,135.5)"><line stroke="currentColor" x2="-6" style="stroke: white;"/><text fill="currentColor" x="-9" dy="0.32em" style="font-size: 1.6em; font-family: &quot;Source Sans Pro&quot;;">10%</text></g><g class="tick" opacity="1" transform="translate(0,120.5)"><line stroke="currentColor" x2="-6" style="stroke: white;"/><text fill="currentColor" x="-9" dy="0.32em" style="font-size: 1.6em; font-family: &quot;Source Sans Pro&quot;;">20%</text></g><g class="tick" opacity="1" transform="translate(0,105.5)"><line stroke="currentColor" x2="-6" style="stroke: white;"/><text fill="currentColor" x="-9" dy="0.32em" style="font-size: 1.6em; font-family: &quot;Source Sans Pro&quot;;">30%</text></g><g class="tick" opacity="1" transform="translate(0,90.5)"><line stroke="currentColor" x2="-6" style="stroke: white;"/><text fill="currentColor" x="-9" dy="0.32em" style="font-size: 1.6em; font-family: &quot;Source Sans Pro&quot;;">40%</text></g><g class="tick" opacity="1" transform="translate(0,75.5)"><line stroke="currentColor" x2="-6" style="stroke: white;"/><text fill="currentColor" x="-9" dy="0.32em" style="font-size: 1.6em; font-family: &quot;Source Sans Pro&quot;;">50%</text></g><g class="tick" opacity="1" transform="translate(0,60.5)"><line stroke="currentColor" x2="-6" style="stroke: white;"/><text fill="currentColor" x="-9" dy="0.32em" style="font-size: 1.6em; font-family: &quot;Source Sans Pro&quot;;">60%</text></g><g class="tick" opacity="1" transform="translate(0,45.5)"><line stroke="currentColor" x2="-6" style="stroke: white;"/><text fill="currentColor" x="-9" dy="0.32em" style="font-size: 1.6em; font-family: &quot;Source Sans Pro&quot;;">70%</text></g><g class="tick" opacity="1" transform="translate(0,30.5)"><line stroke="currentColor" x2="-6" style="stroke: white;"/><text fill="currentColor" x="-9" dy="0.32em" style="font-size: 1.6em; font-family: &quot;Source Sans Pro&quot;;">80%</text></g><g class="tick" opacity="1" transform="translate(0,15.5)"><line stroke="currentColor" x2="-6" style="stroke: white;"/><text fill="currentColor" x="-9" dy="0.32em" style="font-size: 1.6em; font-family: &quot;Source Sans Pro&quot;;">90%</text></g><g class="tick" opacity="1" transform="translate(0,0.5)"><line stroke="currentColor" x2="-6" style="stroke: white;"/><text fill="currentColor" x="-9" dy="0.32em" style="font-size: 1.6em; font-family: &quot;Source Sans Pro&quot;;">100%</text></g></g></g></svg>